<?xml version="1.0" encoding="UTF-8"?>
<svg width="16px" height="16px" viewBox="0 0 16 16" version="1.1" xmlns="http://www.w3.org/2000/svg" xmlns:xlink="http://www.w3.org/1999/xlink">
    <!-- Generator: Sketch 64 (93537) - https://sketch.com -->
    <title>icon_Export</title>
    <desc>Created with Sketch.</desc>
    <g id="home" stroke="none" stroke-width="1" fill="none" fill-rule="evenodd">
        <g id="测温图元拖拽A4全屏" transform="translate(-72.000000, -85.000000)">
            <g id="工具栏" transform="translate(72.000000, 83.000000)">
                <g id="工具栏/添加文件">
                    <g id="icon16/add-doc" transform="translate(0.000000, 2.000000)">
                        <g id="icon_Export">
                            <rect id="矩形备份-2" fill="#D8D8D8" opacity="0" x="0" y="0" width="16" height="16"></rect>
                            <path d="M10.9998332,2 C11.2646912,2 11.5195419,2.0998096 11.7070106,2.27718208 C11.8944793,2.45455456 11.9998888,2.69566089 11.9998888,2.94698868 L11.9998888,8.84156729 L12.9999444,8.84156729 C13.5523434,8.84156729 14,9.26545746 14,9.78915723 L14,13.0524101 C14,13.5755086 13.5523434,14 12.9999444,14 L3.0000556,14 C2.44765664,14 2,13.5755086 2,13.0524101 L2,2.94758994 C2,2.42449143 2.44765664,2 3.0000556,2 L10.9998332,2 Z M10.666259,2.992 L3.3329627,2.992 C3.16417413,2.992 3.0220715,3.11040305 3.00205704,3.26807544 L2.99938845,3.30436985 L2.99938845,12.6790352 C2.99938845,12.8373026 3.12614666,12.9705804 3.29360093,12.98962 L3.33229555,12.992 L10.9998332,12.992 L10.9998332,3.30436985 C10.9998332,3.22166621 10.9644743,3.14193753 10.9024295,3.08362849 C10.8390504,3.02472446 10.7543226,2.992 10.666259,2.992 Z M12.665703,9.99136 L11.9992217,9.99136 L11.9992217,12.5346997 C11.9992217,12.7699841 12.1946962,12.9664407 12.4508812,12.9890419 L12.4989159,12.99136 C12.7564352,12.99136 12.9719242,12.8128684 12.9966087,12.5787431 L12.9986101,12.5346997 L12.9986101,10.295607 C12.9986101,10.215054 12.9632512,10.1373986 12.9012064,10.0806058 C12.8384945,10.023813 12.7537666,9.99136 12.665703,9.99136 Z" id="形状结合" fill="#FFFFFF" fill-rule="nonzero" transform="translate(8.000000, 8.000000) scale(-1, -1) translate(-8.000000, -8.000000) "></path>
                            <path d="M9.08049218,6 C9.35663455,6 9.58049218,6.22385763 9.58049218,6.5 L9.58,8.796 L10.1397703,8.2707213 C10.3322892,8.08954941 10.6325713,8.08954941 10.8250902,8.2707213 L10.8484073,8.29266412 C11.0386178,8.47166368 11.0477061,8.77096754 10.8687065,8.96117802 L10.8484073,8.9814772 L9.36118192,10.3810462 C9.26021414,10.476063 9.12960558,10.5212476 9.00044683,10.5166 C8.89694645,10.5205051 8.79239106,10.4923759 8.7028795,10.4321934 L8.63881808,10.3810462 L7.15159267,8.9814772 L7.13129349,8.96117802 C6.97466888,8.79474385 6.962049,8.54478506 7.08876745,8.36498018 L7.15159267,8.29266412 L7.1749098,8.2707213 C7.34336381,8.11219589 7.59432408,8.09238022 7.78340465,8.21127427 L7.86022968,8.2707213 L8.545,8.915 L8.5453527,6.5 C8.5453527,6.22385763 8.76921033,6 9.0453527,6 L9.08049218,6 Z" id="形状结合" fill="#FFFFFF" transform="translate(9.000000, 8.250000) scale(1, -1) translate(-9.000000, -8.250000) "></path>
                        </g>
                    </g>
                </g>
            </g>
        </g>
    </g>
</svg>