<?xml version="1.0" encoding="UTF-8"?>
<svg width="24px" height="24px" viewBox="0 0 24 24" version="1.1" xmlns="http://www.w3.org/2000/svg" xmlns:xlink="http://www.w3.org/1999/xlink">
    <!-- Generator: Sketch 64 (93537) - https://sketch.com -->
    <title>icon_magnifier</title>
    <desc>Created with Sketch.</desc>
    <g id="home" stroke="none" stroke-width="1" fill="none" fill-rule="evenodd">
        <g id="库_双击测温图元_关闭弹窗" transform="translate(-108.000000, -408.000000)">
            <g id="icon24/点测温" transform="translate(108.000000, 408.000000)">
                <g id="icon_magnifier">
                    <rect id="矩形备份-2" fill="#D8D8D8" opacity="0" x="0" y="0" width="24" height="24"></rect>
                    <path d="M11.5,2 C16.7467051,2 21,6.25329488 21,11.5 C21,13.9434096 20.0775459,16.1713686 18.5618919,17.8546228 L21.5961941,20.8890873 C21.7914562,21.0843494 21.7914562,21.4009319 21.5961941,21.5961941 C21.4009319,21.7914562 21.0843494,21.7914562 20.8890873,21.5961941 L17.8546228,18.5618919 C16.1713686,20.0775459 13.9434096,21 11.5,21 C6.25329488,21 2,16.7467051 2,11.5 C2,6.25329488 6.25329488,2 11.5,2 Z M11.5,3 C6.80557963,3 3,6.80557963 3,11.5 C3,16.1944204 6.80557963,20 11.5,20 C16.1944204,20 20,16.1944204 20,11.5 C20,6.80557963 16.1944204,3 11.5,3 Z M11.5,8 C11.7761424,8 12,8.22385763 12,8.5 L12,11 L14.5,11 C14.7761424,11 15,11.2238576 15,11.5 C15,11.7761424 14.7761424,12 14.5,12 L11.999,12 L12,14.5 C12,14.7761424 11.7761424,15 11.5,15 C11.2238576,15 11,14.7761424 11,14.5 L10.999,12 L8.5,12 C8.22385763,12 8,11.7761424 8,11.5 C8,11.2238576 8.22385763,11 8.5,11 L11,11 L11,8.5 C11,8.22385763 11.2238576,8 11.5,8 Z" id="形状结合" fill="#4E4E4E" fill-rule="nonzero"></path>
                </g>
            </g>
        </g>
    </g>
</svg>