<?xml version="1.0" encoding="UTF-8"?>
<svg width="16px" height="16px" viewBox="0 0 16 16" version="1.1" xmlns="http://www.w3.org/2000/svg" xmlns:xlink="http://www.w3.org/1999/xlink">
    <!-- Generator: Sketch 64 (93537) - https://sketch.com -->
    <title>icon_mark</title>
    <desc>Created with Sketch.</desc>
    <g id="home" stroke="none" stroke-width="1" fill="none" fill-rule="evenodd">
        <g id="测温图元拖拽A4全屏" transform="translate(-555.000000, -85.000000)" fill-rule="nonzero">
            <g id="编组-7" transform="translate(491.000000, 85.000000)">
                <g id="icon_12/add备份-3" transform="translate(64.000000, 0.000000)">
                    <g id="icon_mark">
                        <rect id="矩形备份" opacity="0" x="0" y="0" width="16" height="16"></rect>
                        <path d="M13.8480555,5.44946415 L10.5505358,2.15280499 C10.3465928,1.949065 10.0161511,1.949065 9.81220811,2.15280499 C9.76746097,2.19669161 8.81658434,3.16822076 9.18230612,4.44609569 L7.68844021,5.93824056 C6.87094447,5.69041027 4.7600844,5.26100987 3.20512144,6.81597283 C3.00138145,7.01991586 3.00138145,7.35035754 3.20512144,7.55430057 L5.45624657,9.8054257 L2.14151645,13.1201558 C1.94846355,13.325798 1.95354236,13.6475638 2.15298927,13.8470107 C2.35243618,14.0464576 2.67420198,14.0515365 2.87984418,13.8584836 L6.1945743,10.5437534 L8.44569943,12.794018 C8.54341658,12.8922859 8.67628043,12.9475387 8.8148633,12.9475387 C8.95344617,12.9475387 9.08631002,12.8922859 9.18402717,12.794018 C10.7381296,11.2399156 10.3095897,9.12819501 10.0617594,8.31155979 L11.5547648,6.8185544 C12.8326398,7.18427618 13.8041689,6.23339955 13.8480555,6.18865241 C14.0517955,5.98470938 14.0517955,5.6542677 13.8480555,5.45032467 L13.8480555,5.44946415 Z M11.6442591,5.73946001 C11.4451174,5.6459454 11.2087286,5.68723601 11.0530806,5.84272263 L9.09281185,7.8038519 C8.94418135,7.95306467 8.89912265,8.17666422 8.97836245,8.37179631 C8.98094401,8.37695945 9.21586648,8.96383534 9.256311,9.7228156 C9.29589501,10.4766327 9.13583795,11.1228846 8.7795819,11.651245 L6.56459869,9.43626183 L4.34789444,7.21955757 C5.74624243,6.2747046 7.54473307,6.98721668 7.62648264,7.01991651 C7.82161723,7.10047832 8.04606173,7.05565733 8.19528758,6.90632762 L10.1564168,4.94605888 C10.3119035,4.79041083 10.3531941,4.55402208 10.2596795,4.35488038 C10.0772488,3.96506398 10.143509,3.60450533 10.2596795,3.33860408 L12.6596749,5.73946001 C12.3929131,5.85390942 12.0323545,5.9201696 11.6433986,5.73859949 L11.6442591,5.73946001 Z" id="形状" fill="#4E4E4E"></path>
                    </g>
                </g>
            </g>
        </g>
    </g>
</svg>