<?xml version="1.0" encoding="UTF-8"?>
<svg width="16px" height="16px" viewBox="0 0 16 16" version="1.1" xmlns="http://www.w3.org/2000/svg" xmlns:xlink="http://www.w3.org/1999/xlink">
    <!-- Generator: Sketch 64 (93537) - https://sketch.com -->
    <title>icon_Text box</title>
    <desc>Created with Sketch.</desc>
    <g id="home" stroke="none" stroke-width="1" fill="none" fill-rule="evenodd">
        <g id="测温图元拖拽A4全屏" transform="translate(-523.000000, -85.000000)">
            <g id="编组-7" transform="translate(491.000000, 85.000000)">
                <g id="icon_12/add备份-4" transform="translate(32.000000, 0.000000)">
                    <g id="icon_Text-box">
                        <rect id="矩形" opacity="0" fill-rule="nonzero" x="0" y="0" width="16" height="16"></rect>
                        <path d="M12.504455,2.5 L3.495545,2.5 C3.22094511,2.5 2.97202648,2.61164036 2.79175694,2.7919099 C2.61164317,2.97202367 2.5,3.22075582 2.5,3.495545 L2.5,12.504455 C2.5,12.7790556 2.6116399,13.0279741 2.7919092,13.2082434 C2.97202306,13.3883573 3.22075556,13.5 3.495545,13.5 L12.504455,13.5 C12.7790557,13.5 13.0279743,13.3883602 13.2082436,13.2080909 C13.3883574,13.0279771 13.5,12.7792447 13.5,12.504455 L13.5,3.495545 C13.5,3.22094502 13.3883598,2.97202629 13.2080902,2.79175672 C13.0279765,2.61164303 12.7792444,2.5 12.504455,2.5 Z" id="Stroke-2407" stroke="#4E4E4E"></path>
                        <path d="M11.5555556,4 L4.44444444,4 C4.19898455,4 4,4.19898455 4,4.44444444 L4,5.30755555 C4,5.55301544 4.19898456,5.752 4.44444445,5.752 C4.68990434,5.752 4.88888889,5.55301544 4.88888889,5.30755555 L4.88888889,4.88888889 L7.5517037,4.88888889 L7.5517037,11.1111111 L7.05274074,11.1111111 C6.80728085,11.1111111 6.60829629,11.3100957 6.60829629,11.5555556 C6.60829629,11.8010154 6.80728085,12 7.05274074,12 L8.94014815,12 C9.18560804,12 9.38459259,11.8010154 9.38459259,11.5555556 C9.38459259,11.3100957 9.18560804,11.1111111 8.94014815,11.1111111 L8.44059259,11.1111111 L8.44059259,4.88888889 L11.1111111,4.88888889 L11.1111111,5.30755555 C11.1111111,5.55301544 11.3100957,5.752 11.5555556,5.752 C11.8010154,5.752 12,5.55301544 12,5.30755555 L12,4.44444444 C12,4.19898455 11.8010154,4 11.5555556,4" id="路径" fill="#4E4E4E" fill-rule="nonzero"></path>
                    </g>
                </g>
            </g>
        </g>
    </g>
</svg>