<?xml version="1.0" encoding="UTF-8"?>
<svg width="24px" height="24px" viewBox="0 0 24 24" version="1.1" xmlns="http://www.w3.org/2000/svg" xmlns:xlink="http://www.w3.org/1999/xlink">
    <!-- Generator: Sketch 64 (93537) - https://sketch.com -->
    <title>icon_report2</title>
    <desc>Created with Sketch.</desc>
    <g id="home" stroke="none" stroke-width="1" fill="none" fill-rule="evenodd">
        <g id="测温图元拖拽A4全屏" transform="translate(-16.000000, -105.000000)">
            <g id="左侧菜单" transform="translate(0.000000, 41.000000)">
                <g id="编组-2">
                    <g id="编组-3" transform="translate(12.000000, 12.000000)">
                        <g id="-menu备份-2" transform="translate(0.000000, 48.000000)">
                            <g id="-menu/active">
                                <g id="icon24/帮助备份-2" transform="translate(4.000000, 4.000000)">
                                    <g id="icon_report2">
                                        <rect id="矩形备份-2" fill="#D8D8D8" opacity="0" x="0" y="0" width="24" height="24"></rect>
                                        <path d="M16.7672956,4.125 C17.2100629,4.125 17.5454927,4.22940835 17.7735849,4.4512761 C18.0598183,4.72969838 18.134027,5.15248775 18.1564074,5.45382544 L18.1626834,5.56061485 L18.1626834,18.8465777 C18.1626834,19.6840197 18.4107151,20.3788972 18.8344359,20.8608417 L18.9542977,20.986949 L7.06666667,21 L6.79832285,21 C5.28888889,21 4.3004627,19.8536897 4.22666281,18.4080393 L4.22222222,18.2331787 L4.22222222,9.11049884 L14.8218029,9.11049884 C15.1116143,9.11049884 15.347086,8.89907193 15.3912822,8.63795969 L15.3987421,8.54930394 L15.3987421,6.1087587 C15.3987421,4.79060325 15.8549266,4.125 16.7672956,4.125 Z M21.6109015,15.2575406 C21.8389937,15.2575406 22,15.4272042 22,15.6360209 L22,15.6360209 L22,18.937935 C22,19.0162413 21.9865828,19.1337007 21.9731656,19.2642111 C21.9731656,19.2903132 21.9597484,19.3294664 21.9597484,19.3555684 L21.9597484,19.3555684 L21.9597484,19.3816705 C21.9060797,19.6296404 21.7987421,19.8645592 21.6645702,20.0733759 C21.4633124,20.3213457 21.154717,20.5171114 20.6582809,20.5171114 C19.4507338,20.5171114 19.3165618,19.3425174 19.3165618,18.8465777 L19.3165618,18.8465777 L19.3165618,15.2575406 Z M14.8333333,16.375 L6.94444444,16.375 C6.69898456,16.375 6.49483607,16.5518752 6.45250011,16.7851244 L6.44444444,16.875 L6.44444444,17 C6.44444444,17.2454599 6.62131961,17.4496084 6.85456881,17.4919443 L6.94444444,17.5 L14.8333333,17.5 C15.0787932,17.5 15.2829417,17.3231248 15.3252777,17.0898756 L15.3333333,17 L15.3333333,16.875 C15.3333333,16.5988576 15.1094757,16.375 14.8333333,16.375 Z M14.8333333,13 L6.94444444,13 C6.69898456,13 6.49483607,13.1768752 6.45250011,13.4101244 L6.44444444,13.5 L6.44444444,13.625 C6.44444444,13.8704599 6.62131961,14.0746084 6.85456881,14.1169443 L6.94444444,14.125 L14.8333333,14.125 C15.0787932,14.125 15.2829417,13.9481248 15.3252777,13.7148756 L15.3333333,13.625 L15.3333333,13.5 C15.3333333,13.2238576 15.1094757,13 14.8333333,13 Z M16.0232048,3 C16.1590885,3 16.3085607,3.01174935 16.4444444,3.03524804 C15.0040765,3.14099217 14.1615972,4.16318538 14.1615972,5.80809399 L14.1615972,5.80809399 L14.1615972,7.5 L2.39406292,7.5 C2.16306052,7.5 2,7.35900783 2,7.24151436 L2,7.24151436 L2,4.68015666 C2,3.75195822 2.95118637,3 4.10619839,3 L4.10619839,3 Z" id="形状结合" fill="#FFFFFF" fill-rule="nonzero"></path>
                                    </g>
                                </g>
                            </g>
                        </g>
                    </g>
                </g>
            </g>
        </g>
    </g>
</svg>