<?xml version="1.0" encoding="UTF-8"?>
<svg width="16px" height="16px" viewBox="0 0 16 16" version="1.1" xmlns="http://www.w3.org/2000/svg" xmlns:xlink="http://www.w3.org/1999/xlink">
    <!-- Generator: Sketch 64 (93537) - https://sketch.com -->
    <title>icon_Text annotation</title>
    <desc>Created with Sketch.</desc>
    <g id="home" stroke="none" stroke-width="1" fill="none" fill-rule="evenodd">
        <g id="测温图元拖拽A4全屏" transform="translate(-491.000000, -85.000000)">
            <g id="编组-7" transform="translate(491.000000, 85.000000)">
                <g id="icon_12/add备份-5">
                    <g id="icon_Text-annotation">
                        <rect id="矩形" fill="#D8D8D8" opacity="0" x="0" y="0" width="16" height="16"></rect>
                        <g id="编组" transform="translate(2.000000, 2.000000)">
                            <path d="M10.504455,0.5 L1.495545,0.5 C1.22094511,0.5 0.972026481,0.61164036 0.791756941,0.7919099 C0.611643172,0.972023668 0.5,1.22075582 0.5,1.495545 L0.5,10.504455 C0.5,10.7790556 0.611639901,11.0279741 0.791909198,11.2082434 C0.972023064,11.3883573 1.22075556,11.5 1.495545,11.5 L10.504455,11.5 C10.7790557,11.5 11.0279743,11.3883602 11.2082436,11.2080909 C11.3883574,11.0279771 11.5,10.7792447 11.5,10.504455 L11.5,1.495545 C11.5,1.22094502 11.3883598,0.97202629 11.2080902,0.791756719 C11.0279765,0.611643027 10.7792444,0.5 10.504455,0.5 Z" id="Stroke-2407备份" stroke="#4E4E4E"></path>
                            <path d="M6.72880346,3.00476809 C6.87739427,2.9838563 7.02734706,3.03244179 7.13544028,3.13652055 C7.24353351,3.2405993 7.29775665,3.38860686 7.28248074,3.53788238 C7.25062287,3.68580703 7.20668399,3.83086901 7.15110615,3.97160895 L6.03918205,7.32261307 C5.91085382,7.68627319 5.81070449,8.47756711 5.22694434,8.29935462 C5.00391992,8.23561346 4.85612435,8.0242499 4.87280413,7.79289604 C4.93125729,7.52882103 5.01176057,7.27011506 5.11346715,7.01949952 L6.0528907,4.19361297 L6.26156686,3.56073014 C6.29569009,3.41988883 6.35240151,3.28550464 6.42949787,3.1627984 C6.51393317,3.08514118 6.61705461,3.03069411 6.72880346,3.00476809 L6.72880346,3.00476809 Z" id="路径" fill="#4E4E4E" fill-rule="nonzero"></path>
                            <path d="M3.81533385,3.46629275 C3.99414455,3.44220399 4.1715938,3.51909911 4.27629045,3.66604178 C4.3809871,3.81298444 4.39571825,4.00581621 4.3145573,4.16695725 L3.43415712,5.35161337 L3.18930534,5.67719388 C3.15265897,5.71164557 3.12326955,5.75307559 3.10286467,5.79904858 L3.59332983,6.45020962 L4.09674203,7.11964885 C4.18579652,7.21756197 4.26346685,7.3252529 4.32826596,7.44065981 C4.394894,7.59980648 4.37307467,7.78224864 4.27079597,7.92119476 C4.16851727,8.06014088 4.00079906,8.13518639 3.8290425,8.11885735 C3.73553293,8.10631701 3.64664709,8.0705794 3.57048207,8.01490007 C3.48431392,7.9316982 3.4095364,7.83745804 3.34809725,7.73463426 L2.9132283,7.15544367 L2.29595811,6.33673243 C2.16808535,6.20737926 2.07042433,6.05132969 2.00998037,5.87977732 C1.94296028,5.5831373 2.2312228,5.33447756 2.34584237,5.17911281 L3.14018268,4.1254505 C3.27103412,3.90586237 3.43303462,3.70640807 3.62112792,3.53331284 C3.68409575,3.50614665 3.74901331,3.48374372 3.81533385,3.46629275 L3.81533385,3.46629275 Z" id="路径" fill="#4E4E4E" fill-rule="nonzero"></path>
                            <path d="M8.43514999,3.46629275 C8.70913647,3.46741532 8.9558518,3.63239213 9.06155929,3.88516826 L9.46977252,4.42780246 L10.0824732,5.24156335 C10.2162412,5.37406714 10.3159314,5.5369946 10.3730205,5.71641586 C10.3659738,5.96817615 10.25199,6.2050076 10.0596254,6.36757689 L9.10763559,7.63334255 C9.00132003,7.8668294 8.79956395,8.04319252 8.55395833,8.11733417 C8.38106347,8.13426542 8.21208344,8.05861759 8.10954737,7.9183833 C8.00701131,7.77814901 7.98616975,7.59418577 8.05473486,7.43456708 C8.1586941,7.25844621 8.28028512,7.0933478 8.41763338,6.94181715 L9.28013615,5.7887671 L8.42220294,4.64637932 C8.27955327,4.49041743 8.15476736,4.31901243 8.05016532,4.13535119 C7.96290922,3.9085253 8.05084467,3.65177948 8.25884149,3.52607772 C8.31640767,3.50311218 8.37512959,3.48315689 8.4347692,3.46629275 L8.43514999,3.46629275 Z" id="路径" fill="#4E4E4E" fill-rule="nonzero"></path>
                        </g>
                    </g>
                </g>
            </g>
        </g>
    </g>
</svg>