<?xml version="1.0" encoding="UTF-8"?>
<svg width="16px" height="16px" viewBox="0 0 16 16" version="1.1" xmlns="http://www.w3.org/2000/svg"
     xmlns:xlink="http://www.w3.org/1999/xlink">
    <!-- Generator: Sketch 64 (93537) - https://sketch.com -->
    <title>icon_Import</title>
    <desc>Created with Sketch.</desc>
    <g id="home" stroke="none" stroke-width="1" fill="none" fill-rule="evenodd">
        <g id="库_放大" transform="translate(-136.000000, -53.000000)">
            <g id="工具栏备份" transform="translate(136.000000, 51.000000)">
                <g id="工具栏/添加文件">
                    <g id="icon16/add-doc" transform="translate(0.000000, 2.000000)">
                        <g id="icon_Import">
                            <rect id="矩形" fill="#D8D8D8" opacity="0" x="0" y="0" width="16" height="16"></rect>
                            <g id="编组" transform="translate(2.000000, 2.000000)" fill="#595959">
                                <path d="M8.99983321,0 C9.26469117,0 9.51954189,0.0998096002 9.70701062,0.277182082 C9.89447935,0.454554565 9.99988881,0.695660888 9.99988881,0.946988676 L9.99988881,6.84156729 L10.9999444,6.84156729 C11.5523434,6.84156729 12,7.26545746 12,7.78915723 L12,11.0524101 C12,11.5755086 11.5523434,12 10.9999444,12 L1.0000556,12 C0.447656641,12 1.15463195e-14,11.5755086 1.15463195e-14,11.0524101 L1.15463195e-14,0.947589939 C1.15463195e-14,0.424491432 0.447656641,0 1.0000556,0 L8.99983321,0 Z M8.66625896,0.992 L1.3329627,0.992 C1.16417413,0.992 1.0220715,1.11040305 1.00205704,1.26807544 L0.999388447,1.30436985 L0.999388447,10.6790352 C0.999388447,10.8373026 1.12614666,10.9705804 1.29360093,10.98962 L1.33229555,10.992 L8.99983321,10.992 L8.99983321,1.30436985 C8.99983321,1.22166621 8.96447434,1.14193753 8.90242953,1.08362849 C8.83905043,1.02472446 8.75432257,0.992 8.66625896,0.992 Z M10.665703,7.99136 L9.99922166,7.99136 L9.99922166,10.5346997 C9.99922166,10.7699841 10.1946962,10.9664407 10.4508812,10.9890419 L10.4989159,10.99136 C10.7564352,10.99136 10.9719242,10.8128684 10.9966087,10.5787431 L10.9986101,10.5346997 L10.9986101,8.29560704 C10.9986101,8.21505401 10.9632512,8.13739858 10.9012064,8.0806058 C10.8384945,8.02381302 10.7537666,7.99136 10.665703,7.99136 Z"
                                      id="形状结合" fill-rule="nonzero"
                                      transform="translate(6.000000, 6.000000) scale(-1, -1) translate(-6.000000, -6.000000) "></path>
                                <path d="M7.08049218,4 C7.35663455,4 7.58049218,4.22385763 7.58049218,4.5 L7.58,6.796 L8.13977032,6.2707213 C8.33228919,6.08954941 8.63257134,6.08954941 8.8250902,6.2707213 L8.84840733,6.29266412 C9.03861781,6.47166368 9.04770606,6.77096754 8.86870651,6.96117802 L8.84840733,6.9814772 L7.36118192,8.38104618 C7.26021414,8.47606295 7.12960558,8.52124756 7.00044683,8.5166 C6.89694645,8.52050508 6.79239106,8.49237586 6.7028795,8.43219335 L6.63881808,8.38104618 L5.15159267,6.9814772 L5.13129349,6.96117802 C4.97466888,6.79474385 4.962049,6.54478506 5.08876745,6.36498018 L5.15159267,6.29266412 L5.1749098,6.2707213 C5.34336381,6.11219589 5.59432408,6.09238022 5.78340465,6.21127427 L5.86022968,6.2707213 L6.545,6.915 L6.5453527,4.5 C6.5453527,4.22385763 6.76921033,4 7.0453527,4 L7.08049218,4 Z"
                                      id="形状结合"></path>
                            </g>
                        </g>
                    </g>
                </g>
            </g>
        </g>
    </g>
</svg>