<?xml version="1.0" encoding="UTF-8"?>
<svg width="24px" height="24px" viewBox="0 0 24 24" version="1.1" xmlns="http://www.w3.org/2000/svg" xmlns:xlink="http://www.w3.org/1999/xlink">
    <!-- Generator: Sketch 64 (93537) - https://sketch.com -->
    <title>icon_Options</title>
    <desc>Created with Sketch.</desc>
    <g id="home" stroke="none" stroke-width="1" fill="none" fill-rule="evenodd" opacity="1">
        <g id="测温图元拖拽A4全屏" transform="translate(-16.000000, -628.000000)">
            <g id="左侧菜单" transform="translate(0.000000, 41.000000)">
                <g id="编组-2">
                    <g id="编组" transform="translate(12.000000, 583.000000)">
                        <g id="-menu备份-3">
                            <g id="-menu/active">
                                <g id="icon24/帮助备份-4" transform="translate(4.000000, 4.000000)">
                                    <g id="icon_Options">
                                        <rect id="矩形备份-3" fill="#D8D8D8" opacity="0" x="0" y="0" width="24" height="24"></rect>
                                        <path d="M19,3 C20.1045695,3 21,3.8954305 21,5 L21,19 C21,20.1045695 20.1045695,21 19,21 L5,21 C3.8954305,21 3,20.1045695 3,19 L3,5 C3,3.8954305 3.8954305,3 5,3 L19,3 Z M8.5,13 C7.12139475,13 6,14.1213947 6,15.5 C6,16.8786053 7.12139475,18 8.5,18 C9.87860525,18 11,16.8786053 11,15.5 C11,14.1213947 9.87860525,13 8.5,13 Z M8.5,14.2903573 C9.16616444,14.2903573 9.70856651,14.8327594 9.70856651,15.4989238 C9.70856651,16.1650882 9.16616444,16.7074903 8.5,16.7074903 C7.83383556,16.7074903 7.29143349,16.1650882 7.29143349,15.4989238 C7.29143349,14.8327594 7.83383556,14.2903573 8.5,14.2903573 Z M17.3422495,15 L13.6577505,15 C13.2948915,15 13,15.2959 13,15.66 C13,16.0241 13.2948915,16.32 13.6577505,16.32 L13.6577505,16.32 L17.3422495,16.32 C17.7051085,16.32 18,16.0241 18,15.66 C18,15.2959 17.7051085,15 17.3422495,15 L17.3422495,15 Z M10.342711,6.00026587 C10.1732682,6.00525015 10.0126904,6.0800757 9.89638386,6.20824402 L9.89638386,6.20824402 L7.9173129,8.38587439 L7.08755172,7.53674247 C6.83556966,7.27985047 6.43110153,7.28331655 6.1832292,7.54449204 C5.93611162,7.80687048 5.9393071,8.22756166 6.19068533,8.48440469 L6.19068533,8.48440469 L7.4859223,9.80958189 C7.60522044,9.93136091 7.76712506,10 7.93435549,10 L7.93435549,10 L7.94607227,10 C8.1176986,9.99643304 8.28077482,9.92145679 8.39876611,9.79186858 L8.39876611,9.79186858 L10.8252051,7.12047962 C10.9417448,6.99254023 11.0045397,6.82167795 10.9997442,6.64556665 C10.9949486,6.46945536 10.9229564,6.30255793 10.7996412,6.18167405 C10.6765463,6.0605479 10.5121538,5.99528159 10.342711,6.00026587 Z M17.3422495,7 L13.6577505,7 C13.2948915,7 13,7.2959 13,7.66 C13,8.0241 13.2948915,8.32 13.6577505,8.32 L13.6577505,8.32 L17.3422495,8.32 C17.7051085,8.32 18,8.0241 18,7.66 C18,7.2959 17.7051085,7 17.3422495,7 L17.3422495,7 Z" id="形状结合" fill="#FFFFFF"></path>
                                    </g>
                                </g>
                            </g>
                        </g>
                    </g>
                </g>
            </g>
        </g>
    </g>
</svg>