<?xml version="1.0" encoding="UTF-8"?>
<svg width="16px" height="16px" viewBox="0 0 16 16" version="1.1" xmlns="http://www.w3.org/2000/svg" xmlns:xlink="http://www.w3.org/1999/xlink">
    <!-- Generator: Sketch 64 (93537) - https://sketch.com -->
    <title>icon_Report</title>
    <desc>Created with Sketch.</desc>
    <g id="home" stroke="none" stroke-width="1" fill="none" fill-rule="evenodd">
        <g id="测温图元拖拽A4全屏" transform="translate(-939.000000, -572.000000)">
            <g id="编组-11" transform="translate(56.000000, 560.000000)">
                <g id="编组-13" transform="translate(819.000000, 12.000000)">
                    <g id="icon16/保存" transform="translate(64.000000, 0.000000)">
                        <g id="icon_Report">
                            <rect id="矩形" fill="#000000" fill-rule="nonzero" opacity="0" x="0" y="0" width="16" height="16"></rect>
                            <path d="M9.49945073,2.00087489 L4.00412276,2.00087489 C2.84484537,2.00087489 3.0047457,2.56880391 3.0047457,3.50068741 L3.0047457,12.4993126 C3.0047457,13.7391576 2.84484537,13.9991251 4.00412276,13.9991251 L11.4982049,13.9991251 C12.8713489,13.9991251 12.9972704,13.6951631 12.9972704,12.4993126 C12.9972704,11.7020789 12.9972704,9.36912052 12.9972704,5.50043744 C9.49945073,2.00087489 12.9972704,5.50043744 9.49945073,2.00087489 Z" id="路径" fill="#FFB32C" fill-rule="nonzero"></path>
                            <path d="M12.0033746,12.0043675 C12.0033746,12.9064105 11.968379,13 11.0034996,13 L5.00449944,13 C4.20359955,13 4.00459463,12.9930306 4.00459463,12.0043675 L4.00459463,4.04804288 C4.00459463,2.65515307 3.98862642,3.05241042 5.00449944,3.05241042 C5.68174811,3.05241042 7.01483148,3.05241042 9.00374953,3.05241042 C9.01074866,4.33378939 9.00374953,5.04367535 9.00374953,5.04367535 C9.00374953,6.08311564 9.45669291,6.53712404 10.503562,6.53712404 L12.0033746,6.53712404 L12.0033746,12.0043675 Z" id="路径" fill="#FFDF57" fill-rule="nonzero"></path>
                            <rect id="矩形备份-2" fill="#FFFFFF" x="6" y="10" width="4" height="1" rx="0.5"></rect>
                            <rect id="矩形" fill="#FFFFFF" x="6" y="8" width="4" height="1" rx="0.5"></rect>
                        </g>
                    </g>
                </g>
            </g>
        </g>
    </g>
</svg>