<?xml version="1.0" encoding="UTF-8"?>
<svg width="24px" height="24px" viewBox="0 0 24 24" version="1.1" xmlns="http://www.w3.org/2000/svg" xmlns:xlink="http://www.w3.org/1999/xlink">
    <!-- Generator: Sketch 64 (93537) - https://sketch.com -->
    <title>icon_stencil</title>
    <desc>Created with Sketch.</desc>
    <g id="home" stroke="none" stroke-width="1" fill="none" fill-rule="evenodd" opacity="1">
        <g id="测温图元拖拽A4全屏" transform="translate(-16.000000, -153.000000)">
            <g id="左侧菜单" transform="translate(0.000000, 41.000000)">
                <g id="编组-2">
                    <g id="编组-3" transform="translate(12.000000, 12.000000)">
                        <g id="-menu备份-3" transform="translate(0.000000, 96.000000)">
                            <g id="-menu/active">
                                <g id="icon24/帮助备份-4" transform="translate(4.000000, 4.000000)">
                                    <g id="icon_stencil">
                                        <rect id="矩形备份" fill="#D8D8D8" opacity="0" x="0" y="0" width="24" height="24"></rect>
                                        <path d="M16.875,3 C17.4544664,3 17.9391212,3.44020992 17.99475,4.017 L18,4.125 L18,6 L19.875,6 C20.4544664,6.00002782 20.9391212,6.44020994 20.99475,7.01700001 L21,7.12500001 L21,19.875 C21,20.4963203 20.4963203,21 19.875,21 L7.12500001,21 C6.50367966,21 6,20.4963203 6,19.875 L6,18 L4.125,18 C3.54553357,17.9999722 3.06087878,17.5597901 3.00525001,16.983 L3,16.875 L3,4.125 C3,3.54553357 3.44020993,3.06087878 4.017,3.00525001 L4.125,3 L16.875,3 Z M16.5,4.49999999 L4.49999999,4.49999999 L4.49999999,16.5 L5.99999999,16.5 L5.99999999,7.12500001 C6.00002781,6.54553357 6.44020993,6.06087877 7.01700001,6.00524999 L7.12500001,5.99999999 L16.5,5.99999999 L16.5,4.49999999 Z M17.5,15 L9.5,15 C9.22385763,15 9,15.2238576 9,15.5 C9,15.7761424 9.22385763,16 9.5,16 L9.5,16 L17.5,16 C17.7761424,16 18,15.7761424 18,15.5 C18,15.2238576 17.7761424,15 17.5,15 L17.5,15 Z M17.5,11 L9.5,11 C9.22385763,11 9,11.2238576 9,11.5 C9,11.7761424 9.22385763,12 9.5,12 L9.5,12 L17.5,12 C17.7761424,12 18,11.7761424 18,11.5 C18,11.2238576 17.7761424,11 17.5,11 L17.5,11 Z" id="形状结合" fill="#FFFFFF" fill-rule="nonzero"></path>
                                    </g>
                                </g>
                            </g>
                        </g>
                    </g>
                </g>
            </g>
        </g>
    </g>
</svg>