<?xml version="1.0" encoding="UTF-8"?>
<svg width="24px" height="24px" viewBox="0 0 24 24" version="1.1" xmlns="http://www.w3.org/2000/svg" xmlns:xlink="http://www.w3.org/1999/xlink">
    <!-- Generator: Sketch 64 (93537) - https://sketch.com -->
    <title>icon_Color palette</title>
    <desc>Created with Sketch.</desc>
    <g id="home" stroke="none" stroke-width="1" fill="none" fill-rule="evenodd">
        <g id="库_双击测温图元_关闭弹窗" transform="translate(-108.000000, -351.000000)">
            <g id="icon24/色版" transform="translate(108.000000, 351.000000)">
                <g id="icon_Color-palette">
                    <rect id="矩形" fill="#D8D8D8" opacity="0" x="0" y="0" width="24" height="24"></rect>
                    <path d="M14.5882353,8.17647059 C13.9882353,8.17647059 13.5882353,7.77647058 13.5882353,7.17647059 C13.5882353,6.57647058 13.9882353,6.17647059 14.5882353,6.17647059 C15.1882353,6.17647059 15.5882353,6.5764706 15.5882353,7.17647059 C15.5882353,7.77647056 15.1882353,8.17647059 14.5882353,8.17647059 Z" id="路径" fill="#4E4E4E" fill-rule="nonzero"></path>
                    <path d="M11.6235294,7.32941175 C11.0235294,7.32941175 10.6235294,6.92941174 10.6235294,6.32941175 C10.6235294,5.72941175 11.0235294,5.32941175 11.6235294,5.32941175 C12.2235294,5.32941175 12.6235294,5.72941175 12.6235294,6.32941175 C12.6235294,6.92941174 12.2235294,7.32941175 11.6235294,7.32941175 Z" id="路径" fill="#4E4E4E" fill-rule="nonzero"></path>
                    <path d="M16.7058824,10.2941176 C16.1058823,10.2941176 15.7058824,9.89411763 15.7058824,9.29411764 C15.7058824,8.69411767 16.1058824,8.29411764 16.7058824,8.29411764 C17.3058823,8.29411764 17.7058824,8.69411765 17.7058824,9.29411764 C17.7058824,9.89411766 17.3058823,10.2941176 16.7058824,10.2941176 Z" id="路径" fill="#4E4E4E" fill-rule="nonzero"></path>
                    <path d="M8.76470588,8.17647059 C8.16470587,8.17647059 7.76470588,7.77647058 7.76470588,7.17647059 C7.76470588,6.57647058 8.16470589,6.17647059 8.76470588,6.17647059 C9.36470585,6.17647059 9.76470588,6.5764706 9.76470588,7.17647059 C9.76470588,7.77647056 9.36470588,8.17647059 8.76470588,8.17647059 Z" id="路径" fill="#4E4E4E" fill-rule="nonzero"></path>
                    <path d="M12,2 C17.5294117,2 22,6.47058823 22,12 C22,17.5294117 17.5294118,22 12,22 C10.3529412,22 11.4117647,20.8235294 9.52941175,18.9411765 C7.76470587,17.1764706 2,18.2352941 2,12 C2,6.47058823 6.47058823,2 12,2 Z M12,3 C7.02287298,3 3,7.02287298 3,12 C3,14.5764466 3.93393185,15.6879827 6.11587737,16.4734785 L6.48270363,16.5989732 L7.04377701,16.7740148 L7.61854606,16.9461805 C8.97204054,17.3546154 9.65493925,17.6524904 10.2365185,18.2340697 C10.7571239,18.7546751 11.1290495,19.2733835 11.3976856,19.816472 C11.4676173,19.9578494 11.5287504,20.0967351 11.5855554,20.2408264 L11.6891898,20.522713 L11.8205644,20.9162793 C11.8814834,21.0934625 11.7723727,21.0195297 11.9350879,21.0029713 L12,21 C16.977127,21 21,16.977127 21,12 C21,7.02287299 16.977127,3 12,3 Z" id="路径" fill="#4E4E4E" fill-rule="nonzero"></path>
                    <path d="M14.5,14 C15.6111111,14 16.5,14.9142857 16.5,15.9428571 C16.5,16.9714286 15.6111111,18 14.5,18 C13.3888889,18 12.5,17.0857143 12.5,15.9428571 C12.5,14.8 13.3888889,14 14.5,14 Z M14.5,15 C13.9067578,15 13.5,15.3861964 13.5,15.9428571 C13.5,16.5396358 13.9475763,17 14.5,17 C15.00652,17 15.5,16.4728983 15.5,15.9428571 C15.5,15.4514766 15.043507,15 14.5,15 Z" id="路径" fill="#4E4E4E" fill-rule="nonzero"></path>
                </g>
            </g>
        </g>
    </g>
</svg>