<?xml version="1.0" encoding="UTF-8"?>
<svg width="16px" height="16px" viewBox="0 0 16 16" version="1.1" xmlns="http://www.w3.org/2000/svg" xmlns:xlink="http://www.w3.org/1999/xlink">
    <!-- Generator: Sketch 64 (93537) - https://sketch.com -->
    <title>icon_report1</title>
    <desc>Created with Sketch.</desc>
    <g id="home" stroke="none" stroke-width="1" fill="none" fill-rule="evenodd">
        <g id="测温图元拖拽A4全屏" transform="translate(-72.000000, -536.000000)">
            <g id="编组-10" transform="translate(0.000000, 527.000000)">
                <g id="icon_12/add备份-2" transform="translate(72.000000, 9.000000)">
                    <g id="icon_report1">
                        <rect id="矩形备份" fill="#D8D8D8" opacity="0" x="0" y="0" width="16" height="16"></rect>
                        <g id="编组-6" transform="translate(2.000000, 2.000000)" fill-rule="nonzero">
                            <rect id="矩形" fill="#2C2C2C" x="3.5" y="5.5" width="4" height="1" rx="0.5"></rect>
                            <rect id="矩形备份-7" fill="#2C2C2C" x="3.5" y="8" width="4" height="1" rx="0.5"></rect>
                            <path d="M8.49987345,-1.78674853e-11 C9.22280377,0.00150410494 9.83172667,0.510514263 9.96303283,1.19356914 L9.9828181,1.33240191 L9.98909823,1.46464465 L9.96381586,8.6810554 L11.4971646,8.68160576 C11.5493228,8.68007013 11.6011241,8.68680398 11.6511921,8.70160512 L11.7248218,8.72983203 L11.7916805,8.76863444 L11.8506261,8.81649144 C11.9076013,8.87075322 11.9500131,8.93754148 11.9749141,9.01167971 L11.9938688,9.0880762 L12,9.16384316 L12,10.4917585 C11.9984619,11.2031039 11.4802632,11.8013891 10.7857548,11.9303477 L10.6446032,11.9497762 L10.5103211,11.9559351 L6.321,11.955 L1.995,12 C1.44271525,12 0.995,11.5539288 0.995,11.0036721 L1.003,5.257 L1.00139138,5.22928756 L1.004,5.028 L1.005,4.773705 L1.008,4.707 L1.02622119,3.3219285 L0.488287852,3.3222117 C0.312282676,3.32221169 0.153720401,3.22924413 0.0670599965,3.08350816 L0.029973742,3.00642891 L0.00758913546,2.92453454 L0,2.83987969 L0,1.46417618 C0.00153835564,0.752883728 0.51968714,0.154557395 1.21395638,0.0255888825 L1.35505761,0.00615888185 L1.48927678,-1.78674853e-11 L8.49987345,-1.78674853e-11 Z M8.24159995,1.03237149 C8.13689092,1.09167344 8.05824072,1.18439547 8.0176482,1.29185906 L7.9945271,1.37492895 L7.98631546,1.46464331 L7.98631546,2.83987969 C7.98631546,3.04498414 7.85597734,3.22292481 7.66748212,3.29204369 L7.58334825,3.31476544 L7.49802631,3.3222117 L1.97724541,3.29711443 L1.977,5.18 L1.995,11.0036721 L2.817,11.006 L2.84690348,10.9987174 L2.93222413,10.9912711 L9.11553047,11.0247394 L9.08091791,10.9319248 L9.04286345,10.7876246 L9.01995567,10.6399121 L9.01252249,10.4912914 L9.01252249,1.4646433 C9.0125225,1.28665117 8.91537299,1.12193123 8.75723801,1.03237149 C8.59783617,0.942094274 8.40100178,0.942094274 8.24159995,1.03237149 Z M9.98870333,9.62090791 L9.98909823,10.501911 C9.98909823,10.7159409 10.1285982,10.9030394 10.3240665,10.9727695 L10.4110218,10.9952044 L10.4932553,11.002074 C10.6371972,10.9961738 10.7709388,10.9401178 10.8668953,10.8456409 C10.9240252,10.789392 10.9662428,10.7211463 10.990651,10.6474603 L11.0090154,10.5722038 L11.0153103,10.4913164 L11.0141079,9.64412317 L9.98870333,9.62090791 Z M7.09344398,0.963419734 L1.49046851,0.964662183 C1.26938561,0.96546098 1.07833751,1.10253427 1.00684948,1.29592556 L0.983792764,1.38202248 L0.976575739,1.4646606 L0.951037377,2.35726006 L7.00918242,2.38204941 L7.00975836,1.46748225 C7.00845259,1.36812094 7.01734143,1.26912593 7.03626397,1.17163666 L7.07215293,1.02667449 L7.09344398,0.963419734 Z" id="形状结合" fill="#3C3131"></path>
                        </g>
                    </g>
                </g>
            </g>
        </g>
    </g>
</svg>