<?xml version="1.0" encoding="UTF-8"?>
<svg width="16px" height="16px" viewBox="0 0 16 16" version="1.1" xmlns="http://www.w3.org/2000/svg" xmlns:xlink="http://www.w3.org/1999/xlink">
    <!-- Generator: Sketch 64 (93537) - https://sketch.com -->
    <title>icon_Print</title>
    <desc>Created with Sketch.</desc>
    <g id="home" stroke="none" stroke-width="1" fill="none" fill-rule="evenodd">
        <g id="测温图元拖拽A4全屏" transform="translate(-225.000000, -85.000000)">
            <g id="工具栏备份-2" transform="translate(225.000000, 83.000000)">
                <g id="工具栏/添加文件">
                    <g id="icon16/add-doc" transform="translate(0.000000, 2.000000)">
                        <g id="icon_Print">
                            <rect id="矩形" opacity="0" fill-rule="nonzero" x="0" y="0" width="16" height="16"></rect>
                            <path d="M10,2 L6,2 C5.58578644,2 5.21078644,2.16789322 4.93933983,2.43933983 C4.66789322,2.71078644 4.5,3.08578644 4.5,3.5 L4.5,5 L11.5,5 L11.5,3.5 C11.5,3.08578644 11.3321068,2.71078644 11.0606602,2.43933983 C10.7892136,2.16789322 10.4142136,2 10,2 Z" id="矩形备份-6" stroke="#A6A6A6"></path>
                            <path d="M13,10.5 L13,6.5 C13,5.98716416 12.6139598,5.56449284 12.1166211,5.50672773 L12,5.5 L4,5.5 C3.48716416,5.5 3.06449284,5.88604019 3.00672773,6.38337887 L3,6.5 L3,10.5 L5,10.5 L5,11.5 L3,11.5 C2.44771525,11.5 2,11.0522847 2,10.5 L2,6.5 C2,5.3954305 2.8954305,4.5 4,4.5 L12,4.5 C13.1045695,4.5 14,5.3954305 14,6.5 L14,10.5 C14,11.0522847 13.5522847,11.5 13,11.5 L11,11.5 L11,10.5 L13,10.5 Z" id="形状结合" fill="#A6A6A6" fill-rule="nonzero"></path>
                            <path d="M11,9.5 C11.5522847,9.5 12,9.94771525 12,10.5 L12,12.5 C12,13.6045695 11.1045695,14.5 10,14.5 L6,14.5 C4.8954305,14.5 4,13.6045695 4,12.5 L4,10.5 C4,9.94771525 4.44771525,9.5 5,9.5 L11,9.5 Z M11,10.5 L5,10.5 L5,12.5 C5,13.0128358 5.38604019,13.4355072 5.88337887,13.4932723 L6,13.5 L10,13.5 C10.5128358,13.5 10.9355072,13.1139598 10.9932723,12.6166211 L11,12.5 L11,10.5 Z" id="形状结合" fill="#A6A6A6" fill-rule="nonzero"></path>
                            <path d="" id="矩形备份-8" stroke="#A6A6A6" fill="#FFFFFF"></path>
                        </g>
                    </g>
                </g>
            </g>
        </g>
    </g>
</svg>