<?xml version="1.0" encoding="UTF-8"?>
<svg width="16px" height="16px" viewBox="0 0 16 16" version="1.1" xmlns="http://www.w3.org/2000/svg" xmlns:xlink="http://www.w3.org/1999/xlink">
    <!-- Generator: Sketch 64 (93537) - https://sketch.com -->
    <title>icon_search</title>
    <desc>Created with Sketch.</desc>
    <g id="home" stroke="none" stroke-width="1" fill="none" fill-rule="evenodd">
        <g id="测温图元拖拽A4全屏" transform="translate(-1168.000000, -572.000000)" fill-rule="nonzero">
            <g id="编组-11" transform="translate(56.000000, 560.000000)">
                <g id="在库中搜索" transform="translate(932.000000, 8.000000)">
                    <g id="在库中搜索/1">
                        <g id="icon16/search-2" transform="translate(180.000000, 4.000000)">
                            <g id="icon16/search">
                                <g id="icon_search">
                                    <rect id="矩形备份" fill="#000000" opacity="0" x="0" y="0" width="16" height="16"></rect>
                                    <path d="M7.49993992,2 C10.0494282,2 12.2484188,3.74942654 12.8436759,6.19093392 C12.947131,6.61507373 13,7.0536319 13,7.49939924 C13,8.96538987 12.4264204,10.2975972 11.4914126,11.2836743 L13.767767,13.5606602 L13.0606602,14.267767 L10.7378006,11.9462145 C9.829457,12.6089037 8.71037237,13 7.49993992,13 C4.46237452,13 2,10.5368651 2,7.49939924 C2,4.46193337 4.46237452,2 7.49993992,2 Z M7.49993992,3 C5.0145629,3 3,5.01431448 3,7.49939924 C3,9.98478073 5.01485963,12 7.49993992,12 C9.98512517,12 12,9.98479594 12,7.49939924 C12,7.13480802 11.9570063,6.77575659 11.8721343,6.42780276 C11.3833058,4.42282287 9.57668744,3 7.49993992,3 Z" id="形状结合" fill="#A6A6A6"></path>
                                </g>
                            </g>
                        </g>
                    </g>
                </g>
            </g>
        </g>
    </g>
</svg>