<?xml version="1.0" encoding="UTF-8"?>
<svg width="16px" height="16px" viewBox="0 0 16 16" version="1.1" xmlns="http://www.w3.org/2000/svg" xmlns:xlink="http://www.w3.org/1999/xlink">
    <!-- Generator: Sketch 64 (93537) - https://sketch.com -->
    <title>icon_save</title>
    <desc>Created with Sketch.</desc>
    <g id="home" stroke="none" stroke-width="1" fill="none" fill-rule="evenodd">
        <g id="测温图元拖拽A4全屏" transform="translate(-136.000000, -85.000000)" fill-rule="nonzero">
            <g id="编组-3" transform="translate(136.000000, 83.000000)">
                <g id="编组-2">
                    <g id="工具栏备份">
                        <g id="工具栏/添加文件">
                            <g id="icon16/add-doc" transform="translate(0.000000, 2.000000)">
                                <g id="icon_save">
                                    <rect id="矩形" opacity="0" x="0" y="0" width="16" height="16"></rect>
                                    <rect id="矩形" opacity="0" x="0" y="0" width="16" height="16"></rect>
                                    <path d="M3.38445588,2.5 C3.14107935,2.5 2.92023637,2.59988359 2.76006011,2.76006024 C2.59988342,2.92023732 2.5,3.1410815 2.5,3.38445923 L2.5,12.6155408 C2.5,12.8589185 2.59988342,13.0797627 2.76006011,13.2399398 C2.92023637,13.4001164 3.14107935,13.5 3.38445588,13.5 L12.6155151,13.5 C12.8588972,13.5 13.0797493,13.4001129 13.239933,13.2399321 C13.4001116,13.0797566 13.5,12.8589158 13.5,12.6155408 L13.3665574,4.19446955 L11.662566,2.49172242 C11.5741795,2.40333575 11.3286056,2.5 3.38445588,2.5 Z" id="路径" stroke="#A6A6A6"></path>
                                    <path d="M9.5,2.5 L6.53746193,2.5 L6.75025659,5.44270096 L9.5,5.12124188 L9.5,2.5 Z" id="路径" stroke="#A6A6A6"></path>
                                    <path d="M10.020484,10.5458859 L5.5,11.0019476 L5.5,13.5 L10.4265664,13.5 L10.020484,10.5458859 Z" id="路径" stroke="#A6A6A6"></path>
                                </g>
                            </g>
                        </g>
                    </g>
                </g>
            </g>
        </g>
    </g>
</svg>