<?xml version="1.0" encoding="UTF-8"?>
<svg width="24px" height="24px" viewBox="0 0 24 24" version="1.1" xmlns="http://www.w3.org/2000/svg" xmlns:xlink="http://www.w3.org/1999/xlink">
    <!-- Generator: Sketch 64 (93537) - https://sketch.com -->
    <title>icon_Spot temperature</title>
    <desc>Created with Sketch.</desc>
    <g id="home" stroke="none" stroke-width="1" fill="none" fill-rule="evenodd">
        <g id="库_双击测温图元_关闭弹窗" transform="translate(-108.000000, -174.000000)">
            <g id="icon24/点测温" transform="translate(108.000000, 174.000000)">
                <g id="icon_Spot-temperature">
                    <rect id="矩形备份" fill="#D8D8D8" opacity="0" x="0" y="0" width="24" height="24"></rect>
                    <path d="M12,2 C12.2761424,2 12.5,2.22385763 12.5,2.5 L12.5003924,5.01760973 C15.9679005,5.26252322 18.7380361,8.03297047 18.9824612,11.5006133 L21.5,11.5 C21.7761424,11.5 22,11.7238576 22,12 C22,12.2761424 21.7761424,12.5 21.5,12.5 L18.9823903,12.5003924 C18.7374768,15.9679005 15.9670295,18.7380361 12.4993867,18.9824612 L12.5,21.5 C12.5,21.7761424 12.2761424,22 12,22 C11.7238576,22 11.5,21.7761424 11.5,21.5 L11.4996076,18.9823903 C8.03209953,18.7374768 5.26196388,15.9670295 5.01753877,12.4993867 L2.5,12.5 C2.22385763,12.5 2,12.2761424 2,12 C2,11.7238576 2.22385763,11.5 2.5,11.5 L5.01760973,11.4996076 C5.26252322,8.03209953 8.03297047,5.26196388 11.5006133,5.01753877 L11.5,2.5 C11.5,2.22385763 11.7238576,2 12,2 Z M12,6 C8.6862915,6 6,8.6862915 6,12 C6,15.3137085 8.6862915,18 12,18 C15.3137085,18 18,15.3137085 18,12 C18,8.6862915 15.3137085,6 12,6 Z" id="形状结合" fill="#4E4E4E"></path>
                </g>
            </g>
        </g>
    </g>
</svg>