<?xml version="1.0" encoding="UTF-8"?>
<svg width="24px" height="24px" viewBox="0 0 24 24" version="1.1" xmlns="http://www.w3.org/2000/svg"
     xmlns:xlink="http://www.w3.org/1999/xlink">
    <!-- Generator: Sketch 64 (93537) - https://sketch.com -->
    <title>icon_full screen</title>
    <desc>Created with Sketch.</desc>
    <g id="home" stroke="none" stroke-width="1" fill="none" fill-rule="evenodd" opacity="1">
        <g id="测温图元拖拽A4全屏" transform="translate(-16.000000, -201.000000)">
            <g id="左侧菜单" transform="translate(0.000000, 41.000000)">
                <g id="编组-2">
                    <g id="编组-3" transform="translate(12.000000, 12.000000)">
                        <g id="-menu备份-4" transform="translate(0.000000, 144.000000)">
                            <g id="-menu/active">
                                <g id="icon24/帮助备份-4" transform="translate(4.000000, 4.000000)">
                                    <g id="icon_full-screen">
                                        <rect id="矩形备份-2" fill="#D8D8D8" opacity="0" x="0" y="0" width="24"
                                              height="24"></rect>
                                        <g id="编组" transform="translate(3.000000, 3.000000)" fill="#ffffff"
                                           fill-rule="nonzero">
                                            <path d="M17.0430622,18 L14.5741627,18 C14.2570614,18 14,17.7429386 14,17.4258373 C14,17.108736 14.2570614,16.8516746 14.5741627,16.8516746 L16.4688995,16.8516746 C16.6803004,16.8516746 16.8516746,16.6803004 16.8516746,16.4688995 L16.8516746,14.5741627 C16.8516746,14.2570614 17.108736,14 17.4258373,14 C17.7429386,14 18,14.2570614 18,14.5741627 L18,17.0430622 C18,17.5715644 17.5715644,18 17.0430622,18 Z"
                                                  id="路径"></path>
                                            <path d="M17.4258373,4 C17.108736,4 16.8516746,3.74293861 16.8516746,3.42583732 L16.8516746,1.53110048 C16.8516746,1.31969962 16.6803004,1.14832536 16.4688995,1.14832536 L14.5741627,1.14832536 C14.2570614,1.14832536 14,0.891263971 14,0.574162679 C14,0.257061388 14.2570614,0 14.5741627,0 L17.0430622,0 C17.5715644,0 18,0.428435646 18,0.956937799 L18,3.42583732 C18,3.74293861 17.7429386,4 17.4258373,4 Z"
                                                  id="路径"></path>
                                            <path d="M15,4.15384615 L15,13.8461538 C15,14.4834055 14.4834055,15 13.8461538,15 L4.15384615,15 C3.51659452,15 3,14.4834055 3,13.8461538 L3,4.15384615 C3,3.51659452 3.51659452,3 4.15384615,3 L13.8461538,3 C14.4834055,3 15,3.51659452 15,4.15384615 Z"
                                                  id="路径"></path>
                                            <path d="M3.42583732,1.14832536 L1.53110048,1.14832536 C1.31969962,1.14832536 1.14832536,1.31969962 1.14832536,1.53110048 L1.14832536,3.42583732 C1.14832536,3.74293861 0.891263971,4 0.574162679,4 C0.257061388,4 0,3.74293861 0,3.42583732 L0,0.956937799 C0,0.428435646 0.428435646,0 0.956937799,0 L3.42583732,0 C3.74293861,0 4,0.257061388 4,0.574162679 C4,0.891263971 3.74293861,1.14832536 3.42583732,1.14832536 Z"
                                                  id="路径"></path>
                                            <path d="M0.574162679,14 C0.72644009,14 0.872480614,14.060492 0.980157004,14.1681684 C1.08783339,14.2758447 1.14832536,14.4218853 1.14832536,14.5741627 L1.14832536,16.4688995 C1.14832536,16.6803004 1.31969962,16.8516746 1.53110048,16.8516746 L3.42583732,16.8516746 C3.74293861,16.8516746 4,17.108736 4,17.4258373 C4,17.7429386 3.74293861,18 3.42583732,18 L0.956937799,18 C0.428435646,18 0,17.5715644 0,17.0430622 L0,14.5741627 C0,14.2570614 0.257061388,14 0.574162679,14 Z"
                                                  id="路径"></path>
                                        </g>
                                    </g>
                                </g>
                            </g>
                        </g>
                    </g>
                </g>
            </g>
        </g>
    </g>
</svg>