<?xml version="1.0" encoding="UTF-8"?>
<svg width="24px" height="24px" viewBox="0 0 24 24" version="1.1" xmlns="http://www.w3.org/2000/svg"
     xmlns:xlink="http://www.w3.org/1999/xlink">
    <!-- Generator: Sketch 64 (93537) - https://sketch.com -->
    <title>icon_help</title>
    <desc>Created with Sketch.</desc>
    <g id="home" stroke="none" stroke-width="1" fill="none" fill-rule="evenodd" opacity="1">
        <g id="测温图元拖拽A4全屏" transform="translate(-16.000000, -676.000000)">
            <g id="左侧菜单" transform="translate(0.000000, 41.000000)">
                <g id="编组-2">
                    <g id="编组" transform="translate(12.000000, 583.000000)">
                        <g id="-menu备份-5" transform="translate(0.000000, 48.000000)">
                            <g id="-menu/active">
                                <g id="icon24/帮助备份-4" transform="translate(4.000000, 4.000000)">
                                    <g id="icon_help">
                                        <rect id="矩形备份-4" fill="#D8D8D8" opacity="0" x="0" y="0" width="24"
                                              height="24"></rect>
                                        <path d="M12,2 C17.5254237,2 22,6.47699758 22,12 C22,17.5230024 17.5230024,22 12,22 C6.47699758,22 2,17.5230024 2,12 C2,6.47699758 6.47699758,2 12,2 Z M12,16 C11.4467641,16 11,16.4467213 11,17 C11,17.5512295 11.4488518,18 12,18 C12.5511482,18 13,17.5532787 13,17 C13,16.4467213 12.5511482,16 12,16 Z M12.0828407,7 C11.3540861,7 10.717949,7.15176152 10.1719923,7.45528455 C9.62603566,7.75880759 9.20925623,8.14182475 8.92652866,8.60433604 C8.64136378,9.06684734 8.5,9.52213189 8.5,9.97259861 C8.5,10.1894008 8.59018035,10.3917495 8.77054104,10.5796447 C8.95090173,10.765131 9.17269663,10.8590786 9.43348844,10.8590786 C9.87707824,10.8590786 10.1793043,10.5916893 10.3377292,10.0545017 C10.503466,9.5438121 10.7081998,9.15597712 10.9519305,8.8934056 C11.1932238,8.63083409 11.5710063,8.49834387 12.085278,8.49834387 C12.5239932,8.49834387 12.8822773,8.63083409 13.1601303,8.89099669 C13.4379832,9.15115929 13.5769097,9.47154472 13.5769097,9.84974405 C13.5769097,10.0472749 13.5306009,10.2255345 13.4404205,10.3917495 C13.3502402,10.5603734 13.2381241,10.709726 13.1040722,10.8446251 C12.9724577,10.9819332 12.7579747,11.1818729 12.458186,11.4468534 C12.116963,11.7479675 11.846422,12.0129479 11.6465629,12.232159 C11.4467037,12.453779 11.2858415,12.7091238 11.1639761,13.0006022 C11.0421108,13.2920807 10.9811781,13.6389642 10.9811781,14.0364348 C10.9811781,14.3568202 11.0640466,14.5953026 11.2297834,14.7566998 C11.3955203,14.9205059 11.5978167,15 11.8415474,15 C12.3070729,15 12.5873632,14.7542909 12.6751062,14.2604637 C12.7262897,14.0292081 12.7652866,13.8678109 12.7896597,13.7738633 C12.8140327,13.6799157 12.8505923,13.5859681 12.8969011,13.4944294 C12.9456473,13.4028907 13.0163292,13.2993074 13.1113841,13.1884974 C13.2064391,13.0776874 13.333179,12.9476061 13.491604,12.8006625 C14.0668083,12.2803372 14.4640893,11.9093646 14.6858842,11.6877447 C14.9101164,11.4685336 15.097789,11.2059621 15.2610886,10.902439 C15.4243881,10.5965071 15.5023819,10.2423969 15.5,9.8401084 C15.5,9.32700994 15.3585808,8.85245408 15.0758533,8.41644083 C14.7931257,7.98042758 14.3934074,7.63354411 13.8742611,7.38060825 C13.3575521,7.12767239 12.7579747,7 12.0828407,7 Z"
                                              id="形状结合" fill="#FFFFFF" fill-rule="nonzero"></path>
                                    </g>
                                </g>
                            </g>
                        </g>
                    </g>
                </g>
            </g>
        </g>
    </g>
</svg>